<svg width="28" height="28" viewBox="0 0 28 28" fill="none" xmlns="http://www.w3.org/2000/svg">
<g clip-path="url(#clip0_45_6943)">
<path d="M24.5001 5.15789H22.1053V6.63158H24.3158V22.8421H3.68426V6.63158H5.89479V5.15789H3.50005C3.3278 5.16077 3.15781 5.19756 2.99978 5.26614C2.84176 5.33473 2.69879 5.43377 2.57904 5.55762C2.4593 5.68147 2.36513 5.8277 2.30191 5.98795C2.23868 6.1482 2.20765 6.31933 2.21058 6.49158V22.9821C2.20765 23.1544 2.23868 23.3255 2.30191 23.4857C2.36513 23.646 2.4593 23.7922 2.57904 23.9161C2.69879 24.0399 2.84176 24.139 2.99978 24.2075C3.15781 24.2761 3.3278 24.3129 3.50005 24.3158H24.5001C24.6723 24.3129 24.8423 24.2761 25.0003 24.2075C25.1583 24.139 25.3013 24.0399 25.4211 23.9161C25.5408 23.7922 25.635 23.646 25.6982 23.4857C25.7614 23.3255 25.7925 23.1544 25.7895 22.9821V6.49158C25.7925 6.31933 25.7614 6.1482 25.6982 5.98795C25.635 5.8277 25.5408 5.68147 25.4211 5.55762C25.3013 5.43377 25.1583 5.33473 25.0003 5.26614C24.8423 5.19756 24.6723 5.16077 24.5001 5.15789Z" fill="black"/>
<path d="M6.63159 11.0525H8.10528V12.5262H6.63159V11.0525Z" fill="black"/>
<path d="M11.0527 11.0525H12.5264V12.5262H11.0527V11.0525Z" fill="black"/>
<path d="M15.4738 11.0525H16.9474V12.5262H15.4738V11.0525Z" fill="black"/>
<path d="M19.8948 11.0525H21.3685V12.5262H19.8948V11.0525Z" fill="black"/>
<path d="M6.63159 14.7368H8.10528V16.2105H6.63159V14.7368Z" fill="black"/>
<path d="M11.0527 14.7368H12.5264V16.2105H11.0527V14.7368Z" fill="black"/>
<path d="M15.4738 14.7368H16.9474V16.2105H15.4738V14.7368Z" fill="black"/>
<path d="M19.8948 14.7368H21.3685V16.2105H19.8948V14.7368Z" fill="black"/>
<path d="M6.63159 18.421H8.10528V19.8947H6.63159V18.421Z" fill="black"/>
<path d="M11.0527 18.421H12.5264V19.8947H11.0527V18.421Z" fill="black"/>
<path d="M15.4738 18.421H16.9474V19.8947H15.4738V18.421Z" fill="black"/>
<path d="M19.8948 18.421H21.3685V19.8947H19.8948V18.421Z" fill="black"/>
<path d="M8.10519 8.10525C8.30061 8.10525 8.48803 8.02762 8.62622 7.88943C8.7644 7.75125 8.84203 7.56383 8.84203 7.3684V2.94735C8.84203 2.75193 8.7644 2.56451 8.62622 2.42633C8.48803 2.28814 8.30061 2.21051 8.10519 2.21051C7.90977 2.21051 7.72235 2.28814 7.58416 2.42633C7.44598 2.56451 7.36835 2.75193 7.36835 2.94735V7.3684C7.36835 7.56383 7.44598 7.75125 7.58416 7.88943C7.72235 8.02762 7.90977 8.10525 8.10519 8.10525Z" fill="black"/>
<path d="M19.8947 8.10525C20.0902 8.10525 20.2776 8.02762 20.4158 7.88943C20.554 7.75125 20.6316 7.56383 20.6316 7.3684V2.94735C20.6316 2.75193 20.554 2.56451 20.4158 2.42633C20.2776 2.28814 20.0902 2.21051 19.8947 2.21051C19.6993 2.21051 19.5119 2.28814 19.3737 2.42633C19.2355 2.56451 19.1579 2.75193 19.1579 2.94735V7.3684C19.1579 7.56383 19.2355 7.75125 19.3737 7.88943C19.5119 8.02762 19.6993 8.10525 19.8947 8.10525Z" fill="black"/>
<path d="M10.3157 5.15789H17.6842V6.63158H10.3157V5.15789Z" fill="black"/>
</g>
<defs>
<clipPath id="clip0_45_6943">
<rect width="26.5263" height="26.5263" fill="white" transform="translate(0.736816 0.736816)"/>
</clipPath>
</defs>
</svg>
